<?xml version="1.0" encoding="utf-8"?>
<!-- Generator: Adobe Illustrator 21.0.0, SVG Export Plug-In . SVG Version: 6.00 Build 0)  -->
<svg version="1.1" id="Layer_1" xmlns="http://www.w3.org/2000/svg" xmlns:xlink="http://www.w3.org/1999/xlink" x="0px" y="0px"
	 viewBox="0 0 81.2 84" style="enable-background:new 0 0 81.2 84;" xml:space="preserve">
<g>
	<path fill="#00519b" d="M44.4,59.6c0.8,0.7,1.7,1,2.6,1c1.1,0,2.2-0.5,3-1.4l12.6-14.6c1.3-1.5,1.3-3.7,0-5.2L50,24.8c-1.4-1.7-4-1.9-5.6-0.4
		c-1.7,1.4-1.9,4-0.4,5.6l6.9,8H25.6c-2.2,0-4,1.8-4,4s1.8,4,4,4h25.3L44,54C42.5,55.7,42.7,58.2,44.4,59.6z"/>
	<path fill="#00519b" d="M73.5,29.1c0.8,2,3.2,3,5.2,2.2s3-3.2,2.2-5.2C74.4,10.2,59.1,0,42,0C18.8,0,0,18.8,0,42s18.8,42,42,42
		c17.1,0,32.4-10.2,38.9-26.1c0.8-2-0.1-4.4-2.2-5.2c-2-0.8-4.4,0.1-5.2,2.2C68.2,67.7,55.9,76,42,76C23.3,76,8,60.7,8,42
		S23.3,8,42,8C55.9,8,68.2,16.3,73.5,29.1z"/>
</g>
</svg>
