<?xml version="1.0" encoding="utf-8"?>
<!-- Generator: Adobe Illustrator 21.0.0, SVG Export Plug-In . SVG Version: 6.00 Build 0)  -->
<svg version="1.1" id="Layer_1" xmlns="http://www.w3.org/2000/svg" xmlns:xlink="http://www.w3.org/1999/xlink" x="0px" y="0px"
	 viewBox="0 0 87 84.1" style="enable-background:new 0 0 87 84.1;" xml:space="preserve">
<style type="text/css">
	.st0{fill:#231F20;}
</style>
<path fill="#000000" d="M82,13H25.1L24,5.5c-0.1-1.8-0.7-3.2-1.8-4.2C20.6-0.2,18.6,0,17.9,0H4C1.8,0,0,1.8,0,4s1.8,4,4,4h12.3L25,64.6
	c0.1,1.8,0.7,3.2,1.8,4.2c1.2,1.1,2.6,1.3,3.5,1.3H70c2.2,0,4-1.8,4-4c0-2.2-1.8-4-4-4H32.7l-0.9-6H72c2.7,0,4.6-2.3,4.9-4.7
	L86.8,19c0.1-0.4,0.2-0.8,0.2-1.2C87,15.1,84.9,13,82,13z M69.6,48h-39l-4.2-27h51.4L69.6,48z M34.3,73.4c-2.9,0-5.3,2.4-5.3,5.3
	c0,2.9,2.4,5.3,5.3,5.3s5.3-2.4,5.3-5.3C39.6,75.8,37.2,73.4,34.3,73.4z M61.3,73.4c-2.9,0-5.3,2.4-5.3,5.3c0,2.9,2.4,5.3,5.3,5.3
	c2.9,0,5.3-2.4,5.3-5.3C66.6,75.8,64.2,73.4,61.3,73.4z"/>
</svg>
