<?xml version="1.0" encoding="utf-8"?>
<!-- Generator: Adobe Illustrator 21.0.0, SVG Export Plug-In . SVG Version: 6.00 Build 0)  -->
<svg xmlns="http://www.w3.org/2000/svg" xmlns:xlink="http://www.w3.org/1999/xlink" version="1.1" id="Layer_1" x="0px" y="0px" viewBox="0 0 86 92.8" style="enable-background:new 0 0 86 92.8;" xml:space="preserve">
<path fill="#ffbf14" d="M77,47.5c0-3.4-2.7-6.1-6.1-6.1c-3.3,0-6.1,2.7-6.1,6.1c0,3.4,2.7,6.1,6.1,6.1C74.3,53.6,77,50.9,77,47.5z M77,0H26.4  c-5,0-9,4-9,9v24.6h6.4V9c0-1.4,1.2-2.6,2.6-2.6H77c1.4,0,2.6,1.2,2.6,2.6v74.8c0,1.4-1.2,2.6-2.6,2.6H26.4c-1.4,0-2.6-1.2-2.6-2.6  V61h-6.4v22.8c0,4.9,4,9,9,9H77c4.9,0,9-4.1,9-9V9C86,4.1,82,0,77,0z M29.2,63.1c0,1.2,0.7,2.3,1.7,2.9c1.1,0.5,2.4,0.4,3.4-0.2  l23.4-15.6c0.9-0.6,1.4-1.6,1.4-2.7c0-1.1-0.5-2.1-1.4-2.7L34.3,29.2c-1-0.7-2.3-0.7-3.3-0.2c-1.1,0.6-1.7,1.7-1.7,2.9v8.5H3.6  C1.6,40.4,0,42,0,44v6.7c0,2,1.6,3.6,3.6,3.6h25.6V63.1z"/>
</svg>