<?xml version="1.0" encoding="utf-8"?>
<!-- Generator: Adobe Illustrator 21.0.2, SVG Export Plug-In . SVG Version: 6.00 Build 0)  -->
<svg version="1.1" id="Layer_1" xmlns="http://www.w3.org/2000/svg" xmlns:xlink="http://www.w3.org/1999/xlink" x="0px" y="0px"
	 viewBox="0 0 43.1 33.5" style="enable-background:new 0 0 43.1 33.5;" xml:space="preserve">
<path fill="#ffbf14" d="M20.8,15.3L20.8,15.3c0.5,0.4,1,0.4,1.4,0.1l0.1-0.1L39,1.4c0.1-0.1,0.1-0.1,0.2-0.1C37.9,0.5,36.4,0,34.8,0H8.2
	C6.7,0,5.2,0.5,3.9,1.3c0.1,0,0.2,0.1,0.2,0.1L20.8,15.3z M42,4.2c-0.1,0.2-0.2,0.3-0.4,0.4L25,18.5c-1,0.8-2.2,1.3-3.4,1.3
	s-2.4-0.4-3.4-1.3L1.4,4.5C1.3,4.4,1.2,4.3,1.1,4.2C0.4,5.4,0,6.8,0,8.2v17c0,4.5,3.7,8.2,8.2,8.2h26.6c4.5,0,8.2-3.7,8.2-8.2v-17
	C43.1,6.8,42.7,5.4,42,4.2z"/>
</svg>
