<?xml version="1.0" encoding="utf-8"?>
<!-- Generator: Adobe Illustrator 21.0.2, SVG Export Plug-In . SVG Version: 6.00 Build 0)  -->
<svg version="1.1" id="Layer_1" xmlns="http://www.w3.org/2000/svg" xmlns:xlink="http://www.w3.org/1999/xlink" x="0px" y="0px"
	 viewBox="0 0 43.8 43.8" style="enable-background:new 0 0 43.8 43.8;" xml:space="preserve">
<path fill="#ffbf14" d="M42.2,31.8l-9-4.6c-1.3-0.7-2.8-0.3-3.7,0.8l-3.3,4.2c-3.2-1.8-5.6-3.3-8.5-6.2c-3-3-4.6-5.5-6.3-8.5l4.2-3.3
	c1.1-0.8,1.5-2.4,0.8-3.7l-4.6-8.9c-0.8-1.5-2.8-2-4.3-1.1L2,4.3c-1.3,0.9-2,2.4-2,4c0.1,1.6,0.3,3.7,0.7,5.1
	c1.7,6.3,5.7,13,11.2,18.5c5.5,5.5,12.2,9.5,18.5,11.2c1.5,0.3,3.5,0.5,5.1,0.7c1.6,0.1,3.1-0.7,4-2l3.7-5.8
	C44.3,34.5,43.8,32.6,42.2,31.8z"/>
</svg>
