<?xml version="1.0" encoding="utf-8"?>
<!-- Generator: Adobe Illustrator 21.0.2, SVG Export Plug-In . SVG Version: 6.00 Build 0)  -->
<svg version="1.1" id="Layer_1" xmlns="http://www.w3.org/2000/svg" xmlns:xlink="http://www.w3.org/1999/xlink" x="0px" y="0px"
	 viewBox="0 0 62.075 62.075" style="enable-background:new 0 0 62.075 62.075;" xml:space="preserve">
<path d="M61.175,56.975l-11.4-11.4c4-5,6.2-11.1,6.2-17.6c0-7.4-2.9-14.5-8.2-19.8c-10.9-10.9-28.7-10.9-39.6,0
	c-10.9,10.9-10.9,28.7,0,39.6c5.3,5.3,12.3,8.2,19.8,8.2c6.5,0,12.6-2.2,17.6-6.2l11.4,11.4c0.6,0.6,1.4,0.9,2.1,0.9
	s1.5-0.3,2.1-0.9C62.375,59.975,62.375,58.075,61.175,56.975z M43.675,43.675c-4.1,4.2-9.7,6.4-15.6,6.4c-5.9-0.1-11.5-2.3-15.6-6.5
	c-8.6-8.6-8.6-22.5,0-31.1c4.3-4.3,9.9-6.4,15.6-6.4s11.3,2.1,15.6,6.4c4.2,4.2,6.4,9.7,6.4,15.6S47.775,39.475,43.675,43.675z"/>
</svg>
