<?xml version="1.0" encoding="utf-8"?>
<!-- Generator: Adobe Illustrator 21.0.2, SVG Export Plug-In . SVG Version: 6.00 Build 0)  -->
<svg version="1.1" id="Layer_1" xmlns="http://www.w3.org/2000/svg" xmlns:xlink="http://www.w3.org/1999/xlink" x="0px" y="0px"
	 viewBox="0 0 42.502 31.18" style="enable-background:new 0 0 42.502 31.18;" xml:space="preserve">
<g>
	<path fill="#ffbf14" d="M10.964,21.08c3.493,3.445,6.919,6.823,10.243,10.1c3.389-3.342,6.823-6.728,10.295-10.151
		c-3.446-3.387-6.886-6.769-10.233-10.058C17.894,14.282,14.459,17.652,10.964,21.08z"/>
	<path fill="#ffbf14" d="M10.323,0C6.946,3.316,3.512,6.69,0,10.14c3.49,3.439,6.92,6.818,10.244,10.093c3.406-3.354,6.848-6.742,10.32-10.162
		C17.107,6.671,13.666,3.288,10.323,0z"/>
	<path fill="#ffbf14" d="M32.303,0.036c-3.384,3.325-6.828,6.708-10.299,10.118c3.449,3.396,6.879,6.774,10.199,10.043
		c3.377-3.322,6.817-6.707,10.299-10.133C39.06,6.68,35.627,3.304,32.303,0.036z"/>
</g>
</svg>
